Coordinates
version=1
nRows=21
nColumns=22
inDegrees=yes

Units are S.I. units (second, meters, Newtons, ...)
If the header above contains a line with 'inDegrees', this indicates whether rotational values are in degrees (yes) or radians (no).

endheader
time	pelvis_tilt	pelvis_list	pelvis_rotation	pelvis_tx	pelvis_ty	pelvis_tz	hip_flexion_r	hip_adduction_r	hip_rotation_r	knee_angle_r	ankle_angle_r	subtalar_angle_r	hip_flexion_l	hip_adduction_l	hip_rotation_l	knee_angle_l	ankle_angle_l	subtalar_angle_l	lumbar_extension	lumbar_bending	lumbar_rotation
      2.60000000	     -3.90687422	     -2.86045329	    -25.69673764	     -0.56830971	      0.93556558	      0.08126974	     -2.27983521	     11.83939693	     14.65160649	    -17.66047369	     16.36891489	     -8.18859147	     29.58188291	     -5.51674785	     15.27968446	    -17.04809923	      9.28402579	      8.51781775	     -6.75502238	     -0.55437265	     14.01525111
      2.61000000	     -3.96768238	     -2.74157363	    -26.04289448	     -0.56092096	      0.93456589	      0.08382049	     -2.42021224	     11.71948125	     14.95002082	    -18.22253402	     16.58307493	     -8.09383204	     29.47734803	     -5.40224410	     15.35931334	    -16.69122758	      9.13513919	      8.47793662	     -6.59839307	     -0.64042535	     14.03066122
      2.62000000	     -4.03542386	     -2.62312018	    -26.37779559	     -0.55341314	      0.93362647	      0.08637537	     -2.55156554	     11.59731211	     15.21609107	    -18.79369550	     16.73515356	     -7.95330408	     29.41004914	     -5.25924887	     15.35185174	    -16.64114256	      8.88637610	      8.42387800	     -6.42137792	     -0.71813389	     14.03957816
      2.63000000	     -4.13562453	     -2.51907529	    -26.70157655	     -0.54580822	      0.93272728	      0.08893824	     -2.64178990	     11.50062288	     15.43734356	    -19.39567828	     16.84491630	     -7.67373197	     29.38640177	     -5.11453373	     15.31284394	    -16.84283734	      8.51650669	      8.24170484	     -6.20739576	     -0.75791734	     14.03391765
      2.64000000	     -4.23884698	     -2.41216008	    -27.00262795	     -0.53809311	      0.93193948	      0.09149765	     -2.73075378	     11.39757844	     15.63833516	    -19.99025140	     16.87613830	     -7.44324315	     29.37617721	     -4.93737944	     15.28349392	    -17.24284872	      7.96672707	      8.04804821	     -5.98023901	     -0.79550341	     14.01844114
      2.65000000	     -4.35746227	     -2.31115253	    -27.27579467	     -0.53027091	      0.93126789	      0.09406751	     -2.80502326	     11.30462194	     15.80866307	    -20.58146866	     16.80683249	     -7.14786675	     29.39083196	     -4.74217289	     15.28677078	    -17.80101772	      7.24137715	      7.68334350	     -5.73086174	     -0.81892458	     13.98760809
      2.66000000	     -4.47930855	     -2.18567538	    -27.55115654	     -0.52240394	      0.93071317	      0.09668456	     -2.82542342	     11.20005232	     15.98254289	    -21.24115181	     16.70002018	     -6.93011221	     29.42239181	     -4.52597298	     15.24899575	    -18.45049595	      6.42269367	      7.30710226	     -5.46225028	     -0.86807843	     13.95088405
      2.67000000	     -4.60255547	     -2.06552202	    -27.78374233	     -0.51442068	      0.93032673	      0.09928819	     -2.84271009	     11.09946904	     16.11744451	    -21.89010733	     16.48068275	     -6.63780934	     29.47861068	     -4.28600198	     15.24462139	    -19.18809159	      5.50084017	      6.72989279	     -5.18779002	     -0.91104603	     13.90630756
      2.68000000	     -4.70970840	     -1.91232723	    -28.00748539	     -0.50639395	      0.93010952	      0.10193356	     -2.80908926	     10.97818559	     16.27195825	    -22.62265442	     16.19265976	     -6.37240296	     29.53346125	     -4.01785898	     15.19077726	    -19.93679849	      4.59497973	      6.18584451	     -4.91185493	     -0.99954230	     13.82470517
      2.69000000	     -4.79204991	     -1.76875953	    -28.19429899	     -0.49824075	      0.93009788	      0.10457358	     -2.78765718	     10.85519761	     16.38330627	    -23.36649621	     15.79321971	     -6.03733433	     29.58879846	     -3.73524106	     15.10964767	    -20.73700044	      3.74810339	      5.56683211	     -4.65880630	     -1.08911983	     13.74128063
      2.70000000	     -4.85041943	     -1.60164254	    -28.37092473	     -0.49001129	      0.93025653	      0.10726470	     -2.72815713	     10.71342617	     16.48964398	    -24.19021878	     15.31799248	     -5.68341801	     29.62564174	     -3.43751364	     14.97126118	    -21.52826670	      3.02613210	      5.05766815	     -4.41183394	     -1.21982256	     13.63797797
      2.71000000	     -4.88280046	     -1.42877314	    -28.53439987	     -0.48169026	      0.93060544	      0.11001475	     -2.64388673	     10.56571286	     16.57889296	    -25.08453028	     14.71962077	     -5.26867441	     29.60910319	     -3.14291382	     14.79801161	    -22.27091236	      2.42699850	      4.65403341	     -4.18059201	     -1.37189361	     13.50973874
      2.72000000	     -4.90065223	     -1.29016557	    -28.67094075	     -0.47325945	      0.93111344	      0.11278213	     -2.54505883	     10.44155004	     16.58359108	    -26.03284553	     14.00211853	     -4.66000198	     29.55751204	     -2.87889161	     14.59327582	    -23.01306852	      1.97693035	      4.26157464	     -3.97552771	     -1.49406714	     13.36696566
      2.73000000	     -4.88526657	     -1.19176360	    -28.78624769	     -0.46472988	      0.93180119	      0.11557892	     -2.44494453	     10.33367127	     16.50033140	    -27.04218600	     13.16559802	     -3.79933958	     29.42190841	     -2.64825391	     14.36906145	    -23.71204027	      1.72308602	      3.96678955	     -3.82018956	     -1.59145231	     13.20032232
      2.74000000	     -4.88946107	     -1.10816861	    -28.91267100	     -0.45623125	      0.93256257	      0.11842229	     -2.23746320	     10.25612718	     16.35341581	    -28.18031262	     12.21180830	     -2.84968626	     29.25038946	     -2.46865953	     14.12765670	    -24.33522765	      1.58265940	      3.79076641	     -3.65561184	     -1.66365872	     13.04093780
      2.75000000	     -4.88017544	     -1.05412736	    -29.03722060	     -0.44773414	      0.93343917	      0.12129939	     -1.96977583	     10.19462098	     16.12249745	    -29.41823017	     11.12336977	     -1.63567344	     28.99541431	     -2.32803439	     13.87752017	    -24.87186111	      1.61256609	      3.65121405	     -3.52260205	     -1.71151167	     12.84374854
      2.76000000	     -4.90859751	     -1.02900345	    -29.18447230	     -0.43938140	      0.93433487	      0.12420692	     -1.55400122	     10.18341627	     15.82098744	    -30.80803664	      9.88567429	     -0.29981155	     28.71409339	     -2.25304830	     13.64835784	    -25.32648658	      1.72220927	      3.53692571	     -3.38157034	     -1.71015118	     12.65948264
      2.77000000	     -4.88296627	     -1.00744594	    -29.35063523	     -0.43112189	      0.93528982	      0.12709464	     -1.05320512	     10.12707252	     15.39423110	    -32.35949708	      8.64387431	      1.43174391	     28.34587758	     -2.17315407	     13.35852387	    -25.73082125	      2.02218256	      3.40150176	     -3.31285831	     -1.72950745	     12.46540393
      2.78000000	     -4.89330659	     -0.98920290	    -29.55284304	     -0.42309426	      0.93618793	      0.13000301	     -0.36264837	     10.08812683	     14.89496454	    -34.09168591	      7.31269881	      3.21753110	     27.96916297	     -2.13848959	     13.06127854	    -26.05795871	      2.37459620	      3.25343045	     -3.23302591	     -1.72539722	     12.26908243
      2.79000000	     -4.89273066	     -0.95734434	    -29.79351183	     -0.41530470	      0.93704190	      0.13291214	      0.48597927	     10.01505127	     14.31509391	    -36.00331122	      5.99728134	      5.14440449	     27.55724831	     -2.10966656	     12.72773551	    -26.32420237	      2.78340094	      3.08237754	     -3.18267031	     -1.73970750	     12.07665218
      2.80000000	     -4.87480607	     -0.90563460	    -30.07020165	     -0.40775885	      0.93783144	      0.13580706	      1.48812443	      9.88693676	     13.64224100	    -38.08212816	      4.78701178	      7.11285864	     27.10736296	     -2.07810194	     12.34501011	    -26.52390388	      3.23602718	      2.88332849	     -3.16597316	     -1.77942809	     11.87754782
